<svg width="223" height="169" viewBox="0 0 223 169" fill="none" xmlns="http://www.w3.org/2000/svg">
<g clip-path="url(#clip0_86_949)">
<path d="M168.128 93.1766C173.674 89.0979 182.781 92.1112 182.781 101.925C185.448 96.4179 197.101 97.7512 196.501 106.978C200.114 104.591 205.101 106.751 204.941 111.858C209.834 109.231 218.821 114.631 216.862 122.603C214.208 121.738 211.074 122.191 208.501 124.311C206.941 118.245 200.541 116.365 194.941 116.751C190.582 117.057 186.888 120.351 185.488 123.805C183.048 122.27 179.834 121.937 176.274 122.751C170.168 124.138 166.608 127.925 165.834 133.191C163.101 128.085 155.608 130.245 154.714 134.978C152.781 128.085 145.941 126.085 141.274 126.591C137.261 127.018 132.114 129.258 130.594 135.138C127.274 131.95 121.901 129.603 116.048 130.085C111.648 130.445 107.568 132.711 105.074 136.057C104.408 130.177 93.0209 127.965 88.7556 133.485C86.7009 131.085 83.2343 129.231 79.4476 128.911C75.6609 128.603 70.5943 129.578 67.6743 133.031C66.8476 127.551 59.3276 124.177 54.1009 126.177C52.4609 119.937 40.061 115.418 34.2743 125.645C33.6076 119.418 28.7143 116.978 24.2743 116.978C17.5943 116.978 14.0476 122.085 13.8343 125.191C12.2343 124.298 10.4476 124.085 8.74096 124.418C6.58229 116.538 15.8743 110.497 21.1676 114.085C19.8343 106.085 29.6076 102.751 34.1143 108.085C32.2876 100.925 39.7556 95.8712 45.5543 98.0046C47.5823 90.6032 59.981 86.2699 66.2743 94.5246C67.1676 89.1912 72.3676 85.6979 78.7809 86.5912C81.7676 87.0046 84.1143 88.4965 85.621 90.3645C87.8343 84.3379 97.1956 83.0712 100.274 88.4178C102.208 77.6578 120.568 72.7232 127.941 84.1112C130.394 82.8712 133.461 82.5098 136.941 83.4178C142.501 84.8712 145.448 89.5779 145.834 93.1912C149.221 83.4179 165.074 85.1912 168.114 93.1766H168.128Z" fill="#D87639"/>
<path d="M34.2742 125.645C40.0609 115.418 52.4608 119.937 54.1008 126.177C59.3275 124.177 66.8475 127.551 67.6742 133.031C70.5942 129.578 75.6608 128.603 79.4475 128.911C83.2342 129.231 86.7008 131.085 88.7555 133.485C93.0208 127.965 104.408 130.177 105.074 136.057C107.568 132.711 111.647 130.445 116.047 130.085C121.901 129.603 127.274 131.95 130.594 135.138C132.114 129.258 137.261 127.018 141.274 126.591C145.941 126.085 152.781 128.085 154.714 134.978C155.607 130.245 163.101 128.085 165.834 133.191C166.607 127.925 170.168 124.138 176.274 122.751C179.834 121.937 183.048 122.27 185.488 123.805C186.822 120.513 190.251 117.395 194.345 116.843C190.97 113.578 184.657 114.049 182.781 117.925C182.781 108.111 173.674 105.098 168.128 109.177H168.114C165.074 101.191 149.221 99.4179 145.834 109.191C145.447 105.578 142.501 100.871 136.941 99.4178C133.461 98.5098 130.394 98.8712 127.941 100.111C120.568 88.7232 102.208 93.6578 100.274 104.418C97.1955 99.0712 87.8342 100.338 85.6209 106.365C84.1142 104.497 81.7675 103.005 78.7808 102.591C72.3675 101.698 67.1675 105.191 66.2742 110.525C59.9809 102.27 47.5822 106.603 45.5542 114.005C39.7555 111.871 32.2875 116.925 34.1142 124.085L33.9462 123.917C34.0902 124.461 34.2075 125.029 34.2742 125.645Z" fill="#B74F2F"/>
<path d="M193.161 127.195C193.161 138.423 159.582 147.529 118.161 147.529C76.7406 147.529 43.1606 138.423 43.1606 127.195C43.1606 115.967 76.7406 106.862 118.161 106.862C159.582 106.862 193.161 115.967 193.161 127.195Z" fill="#612D26"/>
<path d="M216.862 122.603C220.341 123.723 223.034 127.085 222.714 131.858C222.221 139.405 217.261 141.658 212.154 140.925C212.154 142.283 211.848 143.738 211.168 145.191C208.809 150.298 200.501 152.311 192.501 148.751C190.529 159.351 176.501 159.937 171.048 156.51C168.301 162.738 159.196 164.525 154.328 160.565C152.234 166.765 141.034 168.005 137.101 161.751C133.448 167.085 127.221 169.751 117.101 168.751C111.529 168.191 108.101 166.338 106.074 164.045C97.3809 172.325 82.7275 166.911 80.4342 159.751C78.1142 162.911 72.7809 164.911 66.2743 163.751C62.6343 163.098 58.9676 160.631 57.3142 157.045C52.0076 163.418 39.0476 160.177 38.1142 152.418C31.8876 154.698 20.4342 154.085 16.7809 148.591C15.5009 146.671 14.7676 144.805 14.4609 143.045C6.40758 143.658 1.23426 140.071 0.94093 134.085C0.70093 129.231 4.51426 125.205 8.74093 124.418C10.4476 124.085 12.2342 124.298 13.8342 125.191C14.0476 122.085 17.5943 116.978 24.2743 116.978C28.7143 116.978 33.6076 119.418 34.2743 125.645C40.0609 115.418 52.4609 119.937 54.1009 126.177C59.3276 124.177 66.8476 127.551 67.6743 133.031C70.5943 129.578 75.6609 128.603 79.4476 128.911C83.2342 129.231 86.7009 131.085 88.7556 133.485C93.0209 127.965 104.408 130.177 105.074 136.057C107.568 132.711 111.648 130.445 116.048 130.085C121.901 129.603 127.274 131.95 130.594 135.138C132.114 129.258 137.261 127.018 141.274 126.591C145.941 126.085 152.781 128.085 154.714 134.978C155.608 130.245 163.101 128.085 165.834 133.191C166.608 127.925 170.168 124.138 176.274 122.751C179.834 121.937 183.048 122.27 185.488 123.805C186.888 120.351 190.582 117.057 194.941 116.751C200.541 116.365 206.941 118.245 208.501 124.311C211.074 122.191 214.208 121.738 216.862 122.603Z" fill="#E88D3A"/>
<path d="M217.479 122.862C216.909 129.833 212.249 131.926 207.443 131.237C207.443 132.533 207.151 133.918 206.505 135.302C204.255 140.169 196.338 142.089 188.714 138.695C186.833 148.798 173.465 149.357 168.267 146.091C165.649 152.026 156.973 153.729 152.333 149.953C150.337 155.862 139.665 157.045 135.915 151.085C132.431 156.167 126.498 158.71 116.854 157.757C111.542 157.222 108.275 155.455 106.345 153.27C98.0594 161.161 84.0928 156.002 81.9088 149.179C79.6981 152.19 74.6141 154.097 68.4141 152.99C64.9435 152.369 61.4488 150.018 59.8741 146.599C54.8155 152.673 42.4661 149.586 41.5754 142.19C35.6408 144.362 24.7248 143.778 21.2435 138.542C20.0235 136.713 19.3235 134.934 19.0328 133.258C11.6275 133.821 6.79147 130.654 6.20747 125.306C3.11414 126.911 0.751472 130.234 0.940806 134.085C1.23414 140.071 6.40746 143.658 14.4608 143.045C14.7675 144.805 15.5008 146.671 16.7808 148.591C20.4341 154.085 31.8874 154.698 38.1141 152.418C39.0474 160.177 52.0074 163.418 57.3141 157.045C58.9674 160.631 62.6341 163.098 66.2741 163.751C72.7808 164.911 78.1141 162.911 80.4341 159.751C82.7274 166.911 97.3808 172.325 106.074 164.045C108.101 166.338 111.529 168.191 117.101 168.751C127.221 169.751 133.447 167.085 137.101 161.751C141.034 168.005 152.234 166.765 154.327 160.565C159.195 164.525 168.301 162.738 171.047 156.51C176.501 159.937 190.529 159.351 192.501 148.751C200.501 152.311 208.809 150.298 211.167 145.191C211.847 143.738 212.154 142.283 212.154 140.925C217.261 141.658 222.221 139.405 222.714 131.858C223.015 127.378 220.649 124.166 217.479 122.862Z" fill="#D87639"/>
<path d="M30.7339 127.154L30.7579 127.171L30.8139 127.211L30.7339 127.154Z" fill="#F1AC56"/>
<path d="M31.258 127.558C31.0914 127.43 30.9234 127.301 30.758 127.171C30.2194 126.69 29.578 126.371 28.9034 126.241C29.1527 125.609 29.2834 124.867 29.2021 124.195C29.0007 122.51 28.3874 121.403 27.0034 120.393C25.922 119.603 24.4327 119.69 23.1967 119.885C22.114 120.057 21.0794 120.846 20.306 121.567C18.4834 123.266 17.41 126.171 18.7647 128.466C19.8527 130.305 22.2327 131.015 24.2727 130.579C24.218 131.17 24.2834 131.767 24.522 132.343C24.8687 133.179 24.9954 133.402 25.5741 134.119C26.1181 134.794 27.1221 135.065 27.9407 135.099C28.2061 135.11 28.8621 135.29 28.0261 135.07C29.5501 135.471 31.0914 134.818 31.914 133.489C32.4754 132.581 32.458 131.574 32.494 130.557C32.5207 129.813 32.3247 128.999 31.922 128.37C31.7554 128.049 31.5327 127.778 31.258 127.558Z" fill="#F1AC56"/>
<path d="M56.1116 135.359L55.8503 135.166C55.4983 134.742 55.0676 134.393 54.5703 134.154C54.1449 132.841 53.273 131.701 51.9903 130.898C51.1743 130.387 50.0609 130.117 49.0449 130.211C49.0689 129.959 49.089 129.706 49.0716 129.462C48.9703 128.026 48.4649 126.87 47.5116 125.794C45.9383 124.019 42.8756 124.119 41.285 125.763C40.1143 126.971 39.9783 128.598 40.5783 129.923C40.3023 131.091 40.7276 132.374 41.5303 133.258C42.2196 134.021 43.4649 134.373 44.4783 134.306C43.9609 135.515 43.8569 136.93 44.2063 138.147C44.8983 140.545 47.0863 141.525 49.2996 141.401C50.1076 141.535 50.9436 141.545 51.8183 141.523L51.9463 141.578H51.9543C53.3476 142.151 54.9009 142.021 56.1116 140.81C57.4769 139.445 57.7529 136.677 56.1116 135.359Z" fill="#F1AC56"/>
<path d="M75.6715 133.985C74.3648 134.285 73.0475 134.905 71.9821 135.783C71.6581 135.575 71.3061 135.401 70.9101 135.239C72.4861 135.882 71.5354 135.463 71.1501 135.27C70.1514 134.77 69.4688 134.622 68.3674 134.506C67.5221 134.418 66.4648 134.73 65.7515 135.171C64.9021 135.698 63.9474 136.665 63.7981 137.685C63.6354 138.791 63.6341 138.965 63.7995 140.069C63.9928 141.373 65.3421 142.479 66.5368 142.807C66.9141 142.911 67.3155 142.947 67.7181 142.93L67.8661 142.985C68.7328 143.211 69.5328 143.107 70.3235 142.857C70.5942 143.393 70.9274 143.895 71.3421 144.333C71.8448 145.522 72.8275 146.534 74.2928 147.019C76.9182 147.889 80.2555 147.419 82.4528 145.781C85.7675 143.313 86.9781 139.022 84.0355 135.723C82.0781 133.53 78.3261 133.375 75.6715 133.985Z" fill="#F1AC56"/>
<path d="M59.6089 129.494C58.0769 129.494 56.7969 130.773 56.7969 132.308C56.7969 133.841 58.0769 135.12 59.6089 135.12C61.1422 135.12 62.4222 133.841 62.4222 132.308C62.4222 130.773 61.1422 129.494 59.6089 129.494Z" fill="#F1AC56"/>
<path d="M132.497 143.533C131.106 143.533 129.945 144.693 129.945 146.085C129.945 147.477 131.106 148.637 132.497 148.637C133.888 148.637 135.049 147.477 135.049 146.085C135.049 144.693 133.888 143.533 132.497 143.533Z" fill="#F1AC56"/>
<path d="M34.4672 135.559L34.3686 135.633C33.3099 135.929 32.6272 137.342 33.5992 138.315C34.5752 139.291 35.9966 138.602 36.2872 137.539L36.3552 137.447C37.1632 136.354 35.5592 134.749 34.4672 135.559Z" fill="#F1AC56"/>
<path d="M100.394 139.458C99.3659 139.002 98.5845 138.747 97.4285 138.721C96.3859 138.698 95.3192 139.125 94.4192 139.591C91.9646 140.862 90.7233 144.247 92.2593 146.655C92.7286 147.39 93.3632 147.969 94.1059 148.341C94.6965 148.974 95.4579 149.445 96.2992 149.625C97.5246 149.885 98.5899 149.674 99.7072 149.122L99.8952 149.001C100.754 148.33 100.858 148.255 100.207 148.773C100.593 148.534 100.949 148.234 101.285 147.929C102.481 146.835 103.091 145.599 103.246 143.975C103.419 142.158 101.998 140.169 100.394 139.458Z" fill="#F1AC56"/>
<path d="M126.902 139.01C125.202 137.252 122.818 136.432 120.441 136.183C117.441 135.872 114.979 136.726 113.199 139.25C112.986 139.551 112.809 139.86 112.649 140.174C111.333 139.576 109.762 139.488 108.333 139.736C108.019 139.791 107.723 139.891 107.442 140.02C105.486 140.708 104.161 142.866 104.398 144.922C104.658 147.178 106.031 149.075 108.343 149.588C110.329 150.028 112.233 149.52 113.785 148.236L113.817 148.203C114.821 149.31 116.175 150.143 117.782 150.499C118.19 150.591 118.594 150.636 118.999 150.66C119.885 150.824 120.791 150.78 121.631 150.526C121.765 150.536 121.894 150.55 122.03 150.556C127.705 150.796 130.699 142.935 126.902 139.01Z" fill="#F1AC56"/>
<path d="M148.463 135.182C148.435 134.973 148.397 134.765 148.33 134.559C147.973 133.477 146.908 132.389 145.654 132.523C144.292 132.669 143.109 133.167 142.374 134.411C141.975 135.089 141.884 135.818 141.982 136.51C139.756 136.642 137.911 138.339 137.841 140.622C137.782 140.813 137.731 141.002 137.695 141.19C137.362 142.878 138.15 144.961 140.046 145.33C141.269 145.57 142.351 145.671 143.578 145.437C145.837 145.007 147.199 142.941 147.286 140.751C147.31 140.166 147.167 139.606 146.925 139.091C147.945 138.485 148.621 137.335 148.555 136.169L148.566 136.089C148.555 135.709 148.434 134.867 148.463 135.182Z" fill="#F1AC56"/>
<path d="M189.941 129.101C189.07 129.101 188.265 129.401 187.603 129.889L187.503 129.634C187.374 129.359 187.067 128.502 187.457 129.677C187.267 129.106 186.987 128.461 186.643 127.946C185.035 125.542 182.53 124.546 179.699 124.974C181.346 124.726 179.463 124.937 178.913 125.122C178.075 125.401 177.319 125.794 176.689 126.425C175.482 127.63 174.942 129.509 175.39 131.163L175.331 131.511C174.689 131.477 173.997 131.546 173.517 131.721C172.361 132.142 171.633 132.755 170.905 133.627C170.49 133.494 170.061 133.402 169.607 133.402C167.501 133.402 165.713 134.966 165.339 136.977C164.922 136.594 164.454 136.265 164.011 136.026C162.609 135.271 161.058 135.037 159.509 135.431C157.819 135.861 156.409 137.589 156.477 139.366L156.422 139.433C155.835 140.261 155.874 141.422 156.079 142.354C156.306 143.393 157.193 144.307 158.069 144.859C159.085 145.501 160.422 145.747 161.606 145.627C162.974 145.491 164.617 145.145 165.577 144.051C166.167 143.378 166.646 142.706 166.859 141.817C166.914 141.586 166.931 141.37 166.951 141.153C167.693 141.735 168.609 142.101 169.607 142.101C170.287 142.101 170.925 141.923 171.503 141.635C171.734 141.802 171.978 141.945 172.237 142.065C172.65 142.751 173.438 143.469 174.255 143.601C175.429 143.794 176.391 144.005 177.593 143.765C179.362 143.411 180.478 141.698 181.058 140.13C181.279 139.533 181.351 138.937 181.315 138.362C182.15 138.359 182.975 138.255 183.671 138.099C184.957 137.811 186.203 136.919 187.05 135.79C187.782 136.57 188.809 137.069 189.941 137.069C192.113 137.069 193.925 135.257 193.925 133.085C193.925 130.913 192.113 129.101 189.941 129.101Z" fill="#F1AC56"/>
<path d="M216.862 122.603C220.341 123.723 223.034 127.085 222.714 131.858C222.221 139.405 217.261 141.658 212.154 140.925C212.154 142.283 211.848 143.738 211.168 145.191C208.809 150.298 200.501 152.311 192.501 148.751C190.529 159.351 176.501 159.937 171.048 156.51C168.301 162.738 159.196 164.525 154.328 160.565C152.234 166.765 141.034 168.005 137.101 161.751C133.448 167.085 127.221 169.751 117.101 168.751C111.529 168.191 108.101 166.338 106.074 164.045C97.3809 172.325 82.7275 166.911 80.4342 159.751C78.1142 162.911 72.7809 164.911 66.2743 163.751C62.6343 163.098 58.9676 160.631 57.3142 157.045C52.0076 163.418 39.0476 160.177 38.1142 152.418C31.8876 154.698 20.4342 154.085 16.7809 148.591C15.5009 146.671 14.7676 144.805 14.4609 143.045C6.40758 143.658 1.23426 140.071 0.94093 134.085C0.70093 129.231 4.51426 125.205 8.74093 124.418C10.4476 124.085 12.2342 124.298 13.8342 125.191C14.0476 122.085 17.5943 116.978 24.2743 116.978C28.7143 116.978 33.6076 119.418 34.2743 125.645C40.0609 115.418 52.4609 119.937 54.1009 126.177C59.3276 124.177 66.8476 127.551 67.6743 133.031C70.5943 129.578 75.6609 128.603 79.4476 128.911C83.2342 129.231 86.7009 131.085 88.7556 133.485C93.0209 127.965 104.408 130.177 105.074 136.057C107.568 132.711 111.648 130.445 116.048 130.085C121.901 129.603 127.274 131.95 130.594 135.138C132.114 129.258 137.261 127.018 141.274 126.591C145.941 126.085 152.781 128.085 154.714 134.978C155.608 130.245 163.101 128.085 165.834 133.191C166.608 127.925 170.168 124.138 176.274 122.751C179.834 121.937 183.048 122.27 185.488 123.805C186.888 120.351 190.582 117.057 194.941 116.751C200.541 116.365 206.941 118.245 208.501 124.311C211.074 122.191 214.208 121.738 216.862 122.603Z" fill="#E88D3A"/>
<path d="M217.479 122.862C216.909 129.833 212.249 131.926 207.443 131.237C207.443 132.533 207.151 133.918 206.505 135.302C204.255 140.169 196.338 142.089 188.714 138.695C186.833 148.798 173.465 149.357 168.267 146.091C165.649 152.026 156.973 153.729 152.333 149.953C150.337 155.862 139.665 157.045 135.915 151.085C132.431 156.167 126.498 158.71 116.854 157.757C111.542 157.222 108.275 155.455 106.345 153.27C98.0594 161.161 84.0928 156.002 81.9088 149.179C79.6981 152.19 74.6141 154.097 68.4141 152.99C64.9435 152.369 61.4488 150.018 59.8741 146.599C54.8155 152.673 42.4661 149.586 41.5754 142.19C35.6408 144.362 24.7248 143.778 21.2435 138.542C20.0235 136.713 19.3235 134.934 19.0328 133.258C11.6275 133.821 6.79147 130.654 6.20747 125.306C3.11414 126.911 0.751472 130.234 0.940806 134.085C1.23414 140.071 6.40746 143.658 14.4608 143.045C14.7675 144.805 15.5008 146.671 16.7808 148.591C20.4341 154.085 31.8874 154.698 38.1141 152.418C39.0474 160.177 52.0074 163.418 57.3141 157.045C58.9674 160.631 62.6341 163.098 66.2741 163.751C72.7808 164.911 78.1141 162.911 80.4341 159.751C82.7274 166.911 97.3808 172.325 106.074 164.045C108.101 166.338 111.529 168.191 117.101 168.751C127.221 169.751 133.447 167.085 137.101 161.751C141.034 168.005 152.234 166.765 154.327 160.565C159.195 164.525 168.301 162.738 171.047 156.51C176.501 159.937 190.529 159.351 192.501 148.751C200.501 152.311 208.809 150.298 211.167 145.191C211.847 143.738 212.154 142.283 212.154 140.925C217.261 141.658 222.221 139.405 222.714 131.858C223.015 127.378 220.649 124.166 217.479 122.862Z" fill="#D87639"/>
<path d="M30.7339 127.154L30.7579 127.171L30.8139 127.211L30.7339 127.154Z" fill="#F1AC56"/>
<path d="M31.258 127.558C31.0914 127.43 30.9234 127.301 30.758 127.171C30.2194 126.69 29.578 126.371 28.9034 126.241C29.1527 125.609 29.2834 124.867 29.2021 124.195C29.0007 122.51 28.3874 121.403 27.0034 120.393C25.922 119.603 24.4327 119.69 23.1967 119.885C22.114 120.057 21.0794 120.846 20.306 121.567C18.4834 123.266 17.41 126.171 18.7647 128.466C19.8527 130.305 22.2327 131.015 24.2727 130.579C24.218 131.17 24.2834 131.767 24.522 132.343C24.8687 133.179 24.9954 133.402 25.5741 134.119C26.1181 134.794 27.1221 135.065 27.9407 135.099C28.2061 135.11 28.8621 135.29 28.0261 135.07C29.5501 135.471 31.0914 134.818 31.914 133.489C32.4754 132.581 32.458 131.574 32.494 130.557C32.5207 129.813 32.3247 128.999 31.922 128.37C31.7554 128.049 31.5327 127.778 31.258 127.558Z" fill="#F1AC56"/>
<path d="M56.1116 135.359L55.8503 135.166C55.4983 134.742 55.0676 134.393 54.5703 134.154C54.1449 132.841 53.273 131.701 51.9903 130.898C51.1743 130.387 50.0609 130.117 49.0449 130.211C49.0689 129.959 49.089 129.706 49.0716 129.462C48.9703 128.026 48.4649 126.87 47.5116 125.794C45.9383 124.019 42.8756 124.119 41.285 125.763C40.1143 126.971 39.9783 128.598 40.5783 129.923C40.3023 131.091 40.7276 132.374 41.5303 133.258C42.2196 134.021 43.4649 134.373 44.4783 134.306C43.9609 135.515 43.8569 136.93 44.2063 138.147C44.8983 140.545 47.0863 141.525 49.2996 141.401C50.1076 141.535 50.9436 141.545 51.8183 141.523L51.9463 141.578H51.9543C53.3476 142.151 54.9009 142.021 56.1116 140.81C57.4769 139.445 57.7529 136.677 56.1116 135.359Z" fill="#F1AC56"/>
<path d="M75.6715 133.985C74.3648 134.285 73.0475 134.905 71.9821 135.783C71.6581 135.575 71.3061 135.401 70.9101 135.239C72.4861 135.882 71.5354 135.463 71.1501 135.27C70.1514 134.77 69.4688 134.622 68.3674 134.506C67.5221 134.418 66.4648 134.73 65.7515 135.171C64.9021 135.698 63.9474 136.665 63.7981 137.685C63.6354 138.791 63.6341 138.965 63.7995 140.069C63.9928 141.373 65.3421 142.479 66.5368 142.807C66.9141 142.911 67.3155 142.947 67.7181 142.93L67.8661 142.985C68.7328 143.211 69.5328 143.107 70.3235 142.857C70.5942 143.393 70.9274 143.895 71.3421 144.333C71.8448 145.522 72.8275 146.534 74.2928 147.019C76.9182 147.889 80.2555 147.419 82.4528 145.781C85.7675 143.313 86.9781 139.022 84.0355 135.723C82.0781 133.53 78.3261 133.375 75.6715 133.985Z" fill="#F1AC56"/>
<path d="M59.6089 129.494C58.0769 129.494 56.7969 130.773 56.7969 132.308C56.7969 133.841 58.0769 135.12 59.6089 135.12C61.1422 135.12 62.4222 133.841 62.4222 132.308C62.4222 130.773 61.1422 129.494 59.6089 129.494Z" fill="#F1AC56"/>
<path d="M132.497 143.533C131.106 143.533 129.945 144.693 129.945 146.085C129.945 147.477 131.106 148.637 132.497 148.637C133.888 148.637 135.049 147.477 135.049 146.085C135.049 144.693 133.888 143.533 132.497 143.533Z" fill="#F1AC56"/>
<path d="M34.4672 135.559L34.3686 135.633C33.3099 135.929 32.6272 137.342 33.5992 138.315C34.5752 139.291 35.9966 138.602 36.2872 137.539L36.3552 137.447C37.1632 136.354 35.5592 134.749 34.4672 135.559Z" fill="#F1AC56"/>
<path d="M100.394 139.458C99.3659 139.002 98.5845 138.747 97.4285 138.721C96.3859 138.698 95.3192 139.125 94.4192 139.591C91.9646 140.862 90.7233 144.247 92.2593 146.655C92.7286 147.39 93.3632 147.969 94.1059 148.341C94.6965 148.974 95.4579 149.445 96.2992 149.625C97.5246 149.885 98.5899 149.674 99.7072 149.122L99.8952 149.001C100.754 148.33 100.858 148.255 100.207 148.773C100.593 148.534 100.949 148.234 101.285 147.929C102.481 146.835 103.091 145.599 103.246 143.975C103.419 142.158 101.998 140.169 100.394 139.458Z" fill="#F1AC56"/>
<path d="M126.902 139.01C125.202 137.252 122.818 136.432 120.441 136.183C117.441 135.872 114.979 136.726 113.199 139.25C112.986 139.551 112.809 139.86 112.649 140.174C111.333 139.576 109.762 139.488 108.333 139.736C108.019 139.791 107.723 139.891 107.442 140.02C105.486 140.708 104.161 142.866 104.398 144.922C104.658 147.178 106.031 149.075 108.343 149.588C110.329 150.028 112.233 149.52 113.785 148.236L113.817 148.203C114.821 149.31 116.175 150.143 117.782 150.499C118.19 150.591 118.594 150.636 118.999 150.66C119.885 150.824 120.791 150.78 121.631 150.526C121.765 150.536 121.894 150.55 122.03 150.556C127.705 150.796 130.699 142.935 126.902 139.01Z" fill="#F1AC56"/>
<path d="M148.463 135.182C148.435 134.973 148.397 134.765 148.33 134.559C147.973 133.477 146.908 132.389 145.654 132.523C144.292 132.669 143.109 133.167 142.374 134.411C141.975 135.089 141.884 135.818 141.982 136.51C139.756 136.642 137.911 138.339 137.841 140.622C137.782 140.813 137.731 141.002 137.695 141.19C137.362 142.878 138.15 144.961 140.046 145.33C141.269 145.57 142.351 145.671 143.578 145.437C145.837 145.007 147.199 142.941 147.286 140.751C147.31 140.166 147.167 139.606 146.925 139.091C147.945 138.485 148.621 137.335 148.555 136.169L148.566 136.089C148.555 135.709 148.434 134.867 148.463 135.182Z" fill="#F1AC56"/>
<path d="M189.941 129.101C189.07 129.101 188.265 129.401 187.603 129.889L187.503 129.634C187.374 129.359 187.067 128.502 187.457 129.677C187.267 129.106 186.987 128.461 186.643 127.946C185.035 125.542 182.53 124.546 179.699 124.974C181.346 124.726 179.463 124.937 178.913 125.122C178.075 125.401 177.319 125.794 176.689 126.425C175.482 127.63 174.942 129.509 175.39 131.163L175.331 131.511C174.689 131.477 173.997 131.546 173.517 131.721C172.361 132.142 171.633 132.755 170.905 133.627C170.49 133.494 170.061 133.402 169.607 133.402C167.501 133.402 165.713 134.966 165.339 136.977C164.922 136.594 164.454 136.265 164.011 136.026C162.609 135.271 161.058 135.037 159.509 135.431C157.819 135.861 156.409 137.589 156.477 139.366L156.422 139.433C155.835 140.261 155.874 141.422 156.079 142.354C156.306 143.393 157.193 144.307 158.069 144.859C159.085 145.501 160.422 145.747 161.606 145.627C162.974 145.491 164.617 145.145 165.577 144.051C166.167 143.378 166.646 142.706 166.859 141.817C166.914 141.586 166.931 141.37 166.951 141.153C167.693 141.735 168.609 142.101 169.607 142.101C170.287 142.101 170.925 141.923 171.503 141.635C171.734 141.802 171.978 141.945 172.237 142.065C172.65 142.751 173.438 143.469 174.255 143.601C175.429 143.794 176.391 144.005 177.593 143.765C179.362 143.411 180.478 141.698 181.058 140.13C181.279 139.533 181.351 138.937 181.315 138.362C182.15 138.359 182.975 138.255 183.671 138.099C184.957 137.811 186.203 136.919 187.05 135.79C187.782 136.57 188.809 137.069 189.941 137.069C192.113 137.069 193.925 135.257 193.925 133.085C193.925 130.913 192.113 129.101 189.941 129.101Z" fill="#F1AC56"/>
</g>
<defs>
<clipPath id="clip0_86_949">
<rect width="221.81" height="91.3497" fill="white" transform="translate(0.930176 77.6086)"/>
</clipPath>
</defs>
</svg>
